{"title":"Watching the Detectives.2007.R5.Rip.XviD-WDR","uid":6853499,"size":884690839,"categoryP":"video","categoryS":"movies","magnet":"?xt=urn:btih:0e5cd6e6be96cf6eeeb90ea9434d77a983e35f1b&amp;dn=Watching+the+Detectives.2007.R5.Rip.XviD-WDR&amp;tr=udp%3A%2F%2Ftracker.openbittorrent.com%3A80&amp;tr=udp%3A%2F%2Fopen.demonii.com%3A1337&amp;tr=udp%3A%2F%2Ftracker.coppersurfer.tk%3A6969&amp;tr=udp%3A%2F%2Fexodus.desync.com%3A6969","seeders":0,"leechers":1,"uploader":"sceneline","files":4,"time":1322609608,"description":"- &lt;a href=&quot;\nhttp://www.Speed.Cd&quot; rel=&quot;nofollow&quot; target=&quot;_NEW&quot;&gt;\nhttp://www.Speed.Cd&lt;/a&gt;      fast  and The Hottest Private Tracker on the net\n\n   signup is open now\n\nPlease Seed back to make the speed Faster!!!\n\n------------------nfo--------------------------\n-Video\nID                               : 0\nFormat                           : MPEG-4 Visual\nFormat profile                   : Advanced Simple@L5\nFormat settings, BVOP            : Yes\nFormat settings, QPel            : No\nFormat settings, GMC             : No warppoints\nFormat settings, Matrix          : Default (H.263)\nCodec ID                         : XVID\nCodec ID/Hint                    : XviD\nDuration                         : 1h 34mn\nBit rate                         : 799 Kbps\nWidth                            : 720 pixels\nHeight                           : 404 pixels\nDisplay aspect ratio             : 16:9\nFrame rate                       : 25.000 fps\nColor space                      : YUV\nChroma subsampling               : 4:2:0\nBit depth                        : 8 bits\nScan type                        : Progressive\nBits/(Pixel*Frame)               : 0.110\nStream size                      : 538 MiB (64%)\nWriting library                  : XviD 1.2.1 (UTC 2008-12-04)\n\nAudio\nID                               : 1\nFormat                           : AC-3\nFormat/Info                      : Audio Coding 3\nMode extension                   : CM (complete main)\nCodec ID                         : 2000\nDuration                         : 1h 34mn\nBit rate mode                    : Constant\nBit rate                         : 448 Kbps\nChannel(s)                       : 6 channels\nChannel positions                : Front: L C R, Side: L R, LFE\nSampling rate                    : 48.0 KHz\nBit depth                        : 16 bits\nVideo delay                      : 40ms\nStream size                      : 302 MiB (36%)\nAlignment                        : Split accross interleaves\nInterleave, duration             : 500 ms (12.50 video frames)\nInterleave, preload duration     : 500 ms","torrent":{"xt":"urn:btih:0e5cd6e6be96cf6eeeb90ea9434d77a983e35f1b","amp;dn":"Watching+the+Detectives.2007.R5.Rip.XviD-WDR","amp;tr":["udp%3A%2F%2Ftracker.openbittorrent.com%3A80","udp%3A%2F%2Fopen.demonii.com%3A1337","udp%3A%2F%2Ftracker.coppersurfer.tk%3A6969","udp%3A%2F%2Fexodus.desync.com%3A6969"],"infoHash":"0e5cd6e6be96cf6eeeb90ea9434d77a983e35f1b","infoHashBuffer":{"type":"Buffer","data":[14,92,214,230,190,150,207,110,238,185,14,169,67,77,119,169,131,227,95,27]},"announce":[],"urlList":[]}}